<svg xmlns="http://www.w3.org/2000/svg" xmlns:xlink="http://www.w3.org/1999/xlink" version="1.1" x="0px" y="0px" viewBox="0 0 496.7 116.6" style="enable-background:new 0 0 496.7 116.6;" xml:space="preserve">
<style type="text/css">
	.st0{display:none;}
	.st1{display:inline;fill:#E30613;}
	.st2{display:inline;fill:#25559A;}
	.st3{fill:#25559A;}
	.st4{fill:#D0D0D0;}
</style>
<g id="Schutzzone" class="st0">
	<path class="st1" d="M75,25.6c0.8-0.2,1.7-0.4,2.6-0.7c0.9-0.3,2.5-0.7,4.7-1.4C87.3,22,91,20.1,93.4,18c2.3-2.2,3.5-4.9,3.5-8.2   c-0.1-3.1-1.2-5.5-3.3-7.2c-2.2-1.7-5-2.6-8.7-2.6c-5.6,0-9.6,1.3-12.2,3.8c-2.6,2.5-4.2,6-4.9,10.4l-2,11.4c-0.8,4-0.4,7.2,1,9.6   c1.5,2.4,4.6,3.7,9.5,3.8c3.2,0,6.3-0.5,9.5-1.4c3.1-0.9,5.9-2.1,8.2-3.5L92,27c-2.5,1.3-5,2.3-7.5,3.1c-2.5,0.8-4.8,1.2-6.9,1.2   c-1.6,0-2.6-0.4-2.9-1.2c-0.3-0.8-0.3-1.7,0-2.8L75,25.6L75,25.6z M82.1,15.6c-1.8,0.6-3,0.9-3.7,1.1c-0.7,0.2-1.3,0.4-1.9,0.6   l0.7-3.9c0.3-1.8,1-3.3,2.1-4.4c1.1-1.1,2.7-1.7,4.8-1.8c1.2,0,2.2,0.3,2.9,0.8c0.7,0.5,1,1.2,1,2.1c0,1.2-0.5,2.3-1.4,3.1   C85.7,14.2,84.1,14.9,82.1,15.6"/>
	<path class="st1" d="M-16.8,62.5c0.8-0.2,1.7-0.4,2.6-0.7c0.9-0.3,2.5-0.7,4.7-1.4c5.1-1.5,8.8-3.4,11.1-5.5   C3.9,52.7,5.1,50,5,46.7c-0.1-3.1-1.2-5.5-3.3-7.2c-2.2-1.7-5-2.6-8.7-2.6c-5.6,0-9.6,1.3-12.2,3.8c-2.6,2.5-4.2,6-4.9,10.4   l-2,11.4c-0.8,4-0.4,7.2,1,9.6c1.5,2.4,4.6,3.7,9.5,3.8c3.2,0,6.3-0.5,9.5-1.4c3.1-0.9,5.9-2.1,8.2-3.5l-2-7.1   c-2.5,1.3-5,2.3-7.5,3.1c-2.5,0.8-4.8,1.2-6.9,1.2c-1.6,0-2.6-0.4-2.9-1.2c-0.3-0.8-0.3-1.7,0-2.8L-16.8,62.5L-16.8,62.5z    M-9.7,52.5c-1.8,0.6-3,0.9-3.7,1.1c-0.7,0.2-1.3,0.4-1.9,0.6l0.7-3.9c0.3-1.8,1-3.3,2.1-4.4c1.1-1.1,2.7-1.7,4.8-1.8   c1.2,0,2.2,0.3,2.9,0.8c0.7,0.5,1,1.2,1,2.1c0,1.2-0.5,2.3-1.4,3.1C-6.1,51.1-7.6,51.8-9.7,52.5"/>
	<path class="st1" d="M474.9,62.5c0.8-0.2,1.7-0.4,2.6-0.7c0.9-0.3,2.5-0.7,4.7-1.4c5.1-1.5,8.8-3.4,11.1-5.5   c2.3-2.2,3.5-4.9,3.5-8.2c-0.1-3.1-1.2-5.5-3.3-7.2c-2.2-1.7-5-2.6-8.7-2.6c-5.6,0-9.6,1.3-12.2,3.8c-2.6,2.5-4.2,6-4.9,10.4   l-2,11.4c-0.8,4-0.4,7.2,1,9.6c1.5,2.4,4.6,3.7,9.5,3.8c3.2,0,6.3-0.5,9.5-1.4c3.1-0.9,5.9-2.1,8.2-3.5l-2-7.1   c-2.5,1.3-5,2.3-7.5,3.1c-2.5,0.8-4.8,1.2-6.9,1.2c-1.6,0-2.6-0.4-2.9-1.2c-0.3-0.8-0.3-1.7,0-2.8L474.9,62.5L474.9,62.5z    M481.9,52.5c-1.8,0.6-3,0.9-3.7,1.1c-0.7,0.2-1.3,0.4-1.9,0.6l0.7-3.9c0.3-1.8,1-3.3,2.1-4.4c1.1-1.1,2.7-1.7,4.8-1.8   c1.2,0,2.2,0.3,2.9,0.8c0.7,0.5,1,1.2,1,2.1c0,1.2-0.5,2.3-1.4,3.1C485.5,51.1,484,51.8,481.9,52.5"/>
	<path class="st1" d="M64.3,103.1c0.8-0.2,1.7-0.4,2.6-0.7c0.9-0.3,2.5-0.7,4.7-1.4c5.1-1.5,8.8-3.4,11.1-5.5   c2.3-2.2,3.5-4.9,3.5-8.2c-0.1-3.1-1.2-5.5-3.3-7.2c-2.2-1.7-5-2.6-8.7-2.6c-5.6,0-9.6,1.3-12.2,3.8c-2.6,2.5-4.2,6-4.9,10.4   l-2,11.4c-0.8,4-0.4,7.2,1,9.6c1.5,2.4,4.6,3.7,9.5,3.8c3.2,0,6.3-0.5,9.5-1.4c3.1-0.9,5.9-2.1,8.2-3.5l-2-7.1   c-2.5,1.3-5,2.3-7.5,3.1c-2.5,0.8-4.8,1.2-6.9,1.2c-1.6,0-2.6-0.4-2.9-1.2c-0.3-0.8-0.3-1.7,0-2.8L64.3,103.1L64.3,103.1z    M71.4,93.1c-1.8,0.6-3,0.9-3.7,1.1c-0.7,0.2-1.3,0.4-1.9,0.6l0.7-3.9c0.3-1.8,1-3.3,2.1-4.4c1.1-1.1,2.7-1.7,4.8-1.8   c1.2,0,2.2,0.3,2.9,0.8c0.7,0.5,1,1.2,1,2.1c0,1.2-0.5,2.3-1.4,3.1C75,91.7,73.5,92.5,71.4,93.1"/>
</g>
<g id="Ebene_3" class="st0">
	<rect x="-26" class="st2" width="522.7" height="116.6"/>
</g>
<g id="Logo_x5F_lang">
	<g>
		<path class="st3" d="M206.7,60.8v11.5c0,1.1-0.4,2-1,2.6c-0.7,0.6-1.7,0.9-3.1,0.9c-1.3,0-2.4-0.3-3.1-0.9c-0.7-0.6-1-1.5-1-2.6    V60.8H197v11.5c0,1.4,0.4,2.5,1.3,3.4c0.9,0.9,2.3,1.3,4.2,1.4c1.9,0,3.4-0.5,4.2-1.4c0.9-0.9,1.3-2,1.3-3.4V60.8H206.7"/>
		<path class="st3" d="M220.8,76.9v-9.3c0-0.8-0.2-1.5-0.6-1.9c-0.4-0.5-1-0.7-1.9-0.7c-0.7,0-1.6,0.2-2.4,0.4    c-0.9,0.3-1.7,0.6-2.3,0.9l-0.1-1.1h-1.2v11.7h1.4v-9.3c0.8-0.4,1.6-0.7,2.4-1c0.9-0.2,1.5-0.4,2.1-0.4c0.4,0,0.7,0.1,0.9,0.3    c0.2,0.2,0.3,0.5,0.3,0.9v9.5H220.8"/>
		<path class="st3" d="M230.5,75.6c-0.4,0.1-0.7,0.2-1.1,0.2c-0.4,0.1-0.7,0.1-1,0.1c-0.6,0-1-0.1-1.1-0.3c-0.2-0.2-0.2-0.6-0.2-1.1    v-8.1h3.4l0.1-1.2h-3.6v-3l-1.4,0.2v2.8h-2.3v1.2h2.3v8.2c0,0.9,0.2,1.6,0.6,2c0.4,0.4,1.1,0.6,2,0.6c0.4,0,0.9,0,1.3-0.1    c0.4-0.1,0.8-0.2,1.2-0.3L230.5,75.6"/>
		<path class="st3" d="M234.5,72.9v-1.5h7.2v-2.3c0-1.2-0.3-2.2-0.9-3c-0.6-0.8-1.7-1.2-3.4-1.2c-1.6,0-2.8,0.4-3.4,1.2    c-0.7,0.8-1,1.8-1,3v3.7c0,1.3,0.3,2.3,0.9,3.1c0.7,0.8,1.8,1.2,3.4,1.2c0.7,0,1.4-0.1,2.2-0.2c0.7-0.1,1.3-0.3,1.9-0.5l-0.2-1.1    c-0.6,0.2-1.2,0.3-1.8,0.4c-0.6,0.1-1.3,0.2-1.9,0.2c-1.2,0-2-0.2-2.4-0.7C234.7,74.7,234.5,73.9,234.5,72.9L234.5,72.9z     M234.5,69.1c0-1,0.2-1.7,0.7-2.2c0.5-0.5,1.2-0.8,2.3-0.8c1.1,0,1.8,0.3,2.3,0.8c0.4,0.5,0.6,1.3,0.6,2.2v1.1h-5.9V69.1"/>
		<path class="st3" d="M250.2,64.9c-0.6,0.2-1.1,0.5-1.8,0.9c-0.6,0.4-1.2,0.7-1.9,1.2l-0.1-1.8h-1.3v11.7h1.4v-8.4    c0.6-0.4,1.2-0.8,1.8-1.2c0.6-0.4,1.3-0.7,1.9-1L250.2,64.9"/>
		<path class="st3" d="M261.3,76.9v-9.3c0-0.8-0.2-1.5-0.6-1.9c-0.4-0.5-1-0.7-1.9-0.7c-0.7,0-1.6,0.2-2.4,0.4    c-0.9,0.3-1.7,0.6-2.3,0.9l-0.1-1.1h-1.2v11.7h1.4v-9.3c0.8-0.4,1.6-0.7,2.4-1c0.9-0.2,1.5-0.4,2.1-0.4c0.4,0,0.7,0.1,0.9,0.3    c0.2,0.2,0.3,0.5,0.3,0.9v9.5H261.3"/>
		<path class="st3" d="M266.1,72.9v-1.5h7.2v-2.3c0-1.2-0.3-2.2-0.9-3c-0.6-0.8-1.7-1.2-3.4-1.2c-1.6,0-2.8,0.4-3.4,1.2    c-0.7,0.8-1,1.8-1,3v3.7c0,1.3,0.3,2.3,0.9,3.1c0.7,0.8,1.8,1.2,3.4,1.2c0.7,0,1.4-0.1,2.2-0.2c0.7-0.1,1.3-0.3,1.9-0.5l-0.2-1.1    c-0.6,0.2-1.2,0.3-1.8,0.4c-0.6,0.1-1.3,0.2-1.9,0.2c-1.1,0-2-0.2-2.4-0.7C266.3,74.7,266.1,73.9,266.1,72.9L266.1,72.9z     M266.1,69.1c0-1,0.2-1.7,0.7-2.2c0.5-0.5,1.2-0.8,2.3-0.8c1.1,0,1.8,0.3,2.3,0.8c0.4,0.5,0.6,1.3,0.6,2.2v1.1h-5.9V69.1"/>
		<path class="st3" d="M285.4,76.9v-9.3c0-0.8-0.2-1.5-0.6-1.9c-0.4-0.5-1-0.7-1.9-0.7c-0.7,0-1.5,0.2-2.4,0.4    c-0.9,0.3-1.6,0.5-2.3,0.9v-6l-1.4,0.2v16.5h1.4v-9.3c0.8-0.4,1.6-0.7,2.4-1c0.9-0.2,1.5-0.4,2.1-0.4c0.4,0,0.7,0.1,0.9,0.3    c0.2,0.2,0.3,0.5,0.3,0.9v9.5H285.4"/>
		<path class="st3" d="M305.1,76.9v-9.3c0-0.8-0.2-1.5-0.6-1.9c-0.4-0.5-1-0.7-1.9-0.7c-0.7,0-1.6,0.2-2.5,0.4    c-0.9,0.3-1.7,0.6-2.4,0.9c-0.2-0.4-0.4-0.7-0.8-1c-0.4-0.2-0.9-0.3-1.5-0.3c-0.7,0-1.6,0.2-2.4,0.4c-0.9,0.3-1.7,0.6-2.3,0.9    l-0.1-1.1h-1.2v11.7h1.4v-9.3c0.8-0.4,1.6-0.7,2.4-1c0.9-0.2,1.5-0.4,2.1-0.4c0.4,0,0.7,0.1,0.9,0.3c0.2,0.2,0.3,0.5,0.3,0.9v9.5    h1.4v-9.3c0.8-0.4,1.6-0.7,2.4-1c0.8-0.2,1.5-0.4,2.1-0.4c0.4,0,0.7,0.1,0.9,0.3c0.2,0.2,0.3,0.5,0.3,0.9v9.5H305.1"/>
		<path class="st3" d="M309.9,72.9v-1.5h7.2v-2.3c0-1.2-0.3-2.2-0.9-3c-0.6-0.8-1.7-1.2-3.4-1.2c-1.6,0-2.8,0.4-3.4,1.2s-1,1.8-1,3    v3.7c0,1.3,0.3,2.3,0.9,3.1c0.7,0.8,1.8,1.2,3.4,1.2c0.7,0,1.4-0.1,2.1-0.2c0.7-0.1,1.3-0.3,1.9-0.5l-0.2-1.1    c-0.6,0.2-1.2,0.3-1.8,0.4c-0.6,0.1-1.3,0.2-1.9,0.2c-1.1,0-2-0.2-2.4-0.7C310.1,74.7,309.9,73.9,309.9,72.9L309.9,72.9z     M309.9,69.1c0-1,0.2-1.7,0.7-2.2c0.5-0.5,1.2-0.8,2.3-0.8c1.1,0,1.8,0.3,2.3,0.8c0.4,0.5,0.6,1.3,0.6,2.2v1.1h-5.9V69.1"/>
		<path class="st3" d="M329.2,76.9v-9.3c0-0.8-0.2-1.5-0.6-1.9c-0.4-0.5-1-0.7-1.9-0.7c-0.7,0-1.6,0.2-2.4,0.4    c-0.9,0.3-1.7,0.6-2.3,0.9l-0.1-1.1h-1.2v11.7h1.4v-9.3c0.8-0.4,1.6-0.7,2.4-1c0.9-0.2,1.5-0.4,2.1-0.4c0.4,0,0.7,0.1,0.9,0.3    c0.2,0.2,0.3,0.5,0.3,0.9v9.5H329.2"/>
		<path class="st3" d="M340.2,73.9c0-0.7,0-1.3-0.2-1.7c-0.1-0.4-0.5-0.8-1-1.1c-0.5-0.3-1.3-0.6-2.5-0.8c-0.7-0.2-1.2-0.3-1.6-0.5    c-0.3-0.2-0.5-0.4-0.6-0.6c-0.1-0.3-0.1-0.7-0.1-1.2c0-0.6,0.1-1.1,0.4-1.4c0.3-0.3,0.9-0.4,1.9-0.4c0.5,0,1,0,1.6,0.1    c0.6,0.1,1.1,0.1,1.6,0.2l0.1-1.2c-0.5-0.1-1-0.2-1.6-0.3c-0.6-0.1-1.2-0.1-1.7-0.1c-1.4,0-2.4,0.3-3,0.8    c-0.6,0.5-0.9,1.3-0.8,2.2c0,0.7,0,1.3,0.2,1.7c0.1,0.4,0.4,0.8,0.9,1.1c0.5,0.3,1.2,0.5,2.1,0.8c0.9,0.2,1.5,0.4,1.9,0.5    c0.4,0.2,0.6,0.4,0.7,0.7c0.1,0.3,0.1,0.7,0.1,1.3c0,0.7-0.1,1.2-0.5,1.5c-0.4,0.3-1.1,0.4-2.1,0.4c-0.4,0-0.9,0-1.5-0.1    c-0.6-0.1-1.1-0.2-1.6-0.4l-0.2,1.1c0.4,0.2,1,0.3,1.6,0.4c0.6,0.1,1.2,0.2,1.8,0.2c1.5,0,2.6-0.3,3.1-0.8    C340,75.8,340.2,75,340.2,73.9"/>
		<path class="st3" d="M352.3,68.3c0-1-0.3-1.9-0.8-2.5c-0.5-0.6-1.4-0.9-2.6-0.9c-0.8,0-1.5,0.1-2.2,0.3c-0.6,0.2-1.2,0.4-1.7,0.6    v-5.6l-1.4,0.2v16.3c0.6,0.1,1.2,0.2,2,0.3c0.8,0.1,1.4,0.1,1.9,0.1c1.7,0,3-0.4,3.7-1.1c0.7-0.7,1-1.7,1-3.1V68.3L352.3,68.3z     M345.1,67.3c0.5-0.3,1.1-0.6,1.7-0.7c0.6-0.2,1.2-0.3,1.9-0.3c0.8,0,1.3,0.2,1.7,0.5c0.3,0.3,0.5,0.9,0.5,1.5V73    c0,0.9-0.2,1.6-0.6,2.1c-0.4,0.5-1.3,0.7-2.5,0.8c-0.4,0-0.9,0-1.3-0.1c-0.5,0-0.9-0.1-1.4-0.2V67.3"/>
		<path class="st3" d="M356.7,72.9v-1.5h7.2v-2.3c0-1.2-0.3-2.2-0.9-3c-0.6-0.8-1.7-1.2-3.4-1.2c-1.6,0-2.8,0.4-3.4,1.2    c-0.7,0.8-1,1.8-1,3v3.7c0,1.3,0.3,2.3,0.9,3.1c0.7,0.8,1.8,1.2,3.4,1.2c0.7,0,1.4-0.1,2.1-0.2c0.7-0.1,1.3-0.3,1.9-0.5l-0.2-1.1    c-0.6,0.2-1.2,0.3-1.8,0.4c-0.6,0.1-1.3,0.2-1.9,0.2c-1.1,0-2-0.2-2.4-0.7C356.9,74.7,356.7,73.9,356.7,72.9L356.7,72.9z     M356.7,69.1c0-1,0.2-1.7,0.7-2.2c0.5-0.5,1.2-0.8,2.3-0.8c1.1,0,1.8,0.3,2.3,0.8c0.4,0.5,0.6,1.3,0.6,2.2v1.1h-5.9V69.1"/>
		<path class="st3" d="M372.4,64.9c-0.6,0.2-1.1,0.5-1.8,0.9c-0.6,0.4-1.2,0.7-1.9,1.2l-0.1-1.8h-1.3v11.7h1.4v-8.4    c0.6-0.4,1.2-0.8,1.8-1.2c0.6-0.4,1.3-0.7,1.9-1L372.4,64.9"/>
		<path class="st3" d="M382.8,68.3c0-1.1-0.3-1.9-1-2.5c-0.7-0.6-1.8-0.9-3.3-0.9c-0.6,0-1.3,0-1.9,0.1c-0.7,0.1-1.2,0.2-1.7,0.3    l0.2,1.2c0.5-0.1,1.1-0.2,1.7-0.3c0.6-0.1,1.2-0.1,1.8-0.1c1,0,1.7,0.1,2.1,0.5c0.4,0.3,0.7,0.9,0.7,1.7v2.3h-3.5    c-1.2,0-2,0.2-2.6,0.7c-0.6,0.5-0.9,1.3-0.9,2.6c0,1.1,0.2,1.9,0.7,2.4c0.5,0.6,1.3,0.8,2.3,0.9c0.8,0,1.5-0.1,2.1-0.3    c0.7-0.2,1.3-0.5,1.8-0.8l0.1,0.9h1.2V68.3L382.8,68.3z M381.4,74.6c-0.5,0.4-1.1,0.7-1.8,0.9c-0.6,0.2-1.2,0.3-1.8,0.3    c-0.8,0-1.3-0.2-1.6-0.5c-0.3-0.3-0.4-0.8-0.4-1.5c0-0.8,0.1-1.3,0.4-1.6c0.3-0.3,0.9-0.4,1.7-0.4h3.4V74.6"/>
		<path class="st3" d="M392.4,75.6c-0.3,0.1-0.7,0.2-1.1,0.2c-0.4,0.1-0.7,0.1-1,0.1c-0.6,0-1-0.1-1.1-0.3c-0.2-0.2-0.2-0.6-0.2-1.1    v-8.1h3.4l0.1-1.2H389v-3l-1.4,0.2v2.8h-2.3v1.2h2.3v8.2c0,0.9,0.2,1.6,0.6,2c0.4,0.4,1.1,0.6,2,0.6c0.4,0,0.9,0,1.3-0.1    c0.4-0.1,0.8-0.2,1.2-0.3L392.4,75.6"/>
		<path class="st3" d="M395.5,65.1v9.3c0,0.8,0.2,1.5,0.6,1.9c0.4,0.5,1,0.7,1.9,0.7c0.7,0,1.6-0.2,2.4-0.4c0.9-0.3,1.7-0.6,2.3-0.9    l0.1,1.1h1.2V65.1h-1.4v9.3c-0.8,0.4-1.6,0.7-2.4,1c-0.9,0.2-1.5,0.4-2.1,0.4c-0.4,0-0.7-0.1-0.9-0.3c-0.2-0.2-0.3-0.5-0.3-0.9    v-9.5H395.5"/>
		<path class="st3" d="M416.7,76.9v-9.3c0-0.8-0.2-1.5-0.6-1.9c-0.4-0.5-1-0.7-1.9-0.7c-0.7,0-1.6,0.2-2.4,0.4    c-0.9,0.3-1.7,0.6-2.3,0.9l-0.1-1.1h-1.2v11.7h1.4v-9.3c0.8-0.4,1.6-0.7,2.4-1c0.9-0.2,1.5-0.4,2.1-0.4c0.4,0,0.7,0.1,0.9,0.3    c0.2,0.2,0.3,0.5,0.3,0.9v9.5H416.7"/>
		<path class="st3" d="M429.2,69.2V69c0-0.6-0.1-1.1-0.2-1.5c-0.1-0.5-0.3-0.9-0.6-1.2l1.5-0.1v-1h-3.2c-0.3-0.1-0.6-0.1-0.9-0.2    c-0.3,0-0.7-0.1-1.1-0.1c-1.6,0-2.8,0.4-3.5,1.1c-0.7,0.7-1,1.7-1,3.1v0.1c0,0.8,0.1,1.5,0.4,2.1c0.3,0.6,0.7,1.1,1.3,1.4    c-0.4,0.3-0.7,0.6-0.9,1c-0.2,0.3-0.2,0.7-0.2,1c0,0.5,0.2,1,0.5,1.4c0.3,0.4,1,0.6,1.8,0.7c0.5,0,0.9,0.1,1.2,0.1    c0.3,0,0.6,0,0.9,0.1c0.3,0,0.7,0,1.1,0.1c0.7,0,1.2,0.2,1.5,0.5c0.3,0.3,0.4,0.7,0.4,1.3c0,0.4-0.1,0.8-0.2,1.1    c-0.2,0.3-0.5,0.5-1,0.7c-0.5,0.1-1.3,0.2-2.3,0.2c-0.6,0-1.3,0-2-0.1c-0.7-0.1-1.3-0.2-1.9-0.3l-0.2,1.1c0.7,0.2,1.4,0.3,2.1,0.4    c0.8,0.1,1.4,0.2,2,0.2c1.9,0,3.2-0.2,3.9-0.7c0.7-0.5,1.1-1.3,1.1-2.5c0-0.8-0.2-1.5-0.7-1.9c-0.4-0.5-1.2-0.8-2.3-0.8    c-0.5,0-0.9-0.1-1.2-0.1c-0.3,0-0.6-0.1-0.9-0.1c-0.3,0-0.7-0.1-1.2-0.1c-0.4,0-0.7-0.1-0.8-0.3c-0.2-0.1-0.2-0.3-0.2-0.6    c0-0.3,0.1-0.5,0.2-0.8c0.1-0.2,0.4-0.5,0.7-0.8c0.2,0,0.5,0.1,0.7,0.1c0.3,0,0.5,0,0.8,0c1.5,0,2.7-0.4,3.4-1.1    C428.8,71.5,429.2,70.5,429.2,69.2L429.2,69.2z M427.9,69v0.2c0,1-0.3,1.8-0.8,2.2c-0.5,0.4-1.3,0.7-2.4,0.6    c-1.1,0-1.9-0.2-2.4-0.6c-0.5-0.4-0.8-1.2-0.8-2.3V69c0-1.1,0.2-1.8,0.7-2.2c0.5-0.4,1.3-0.6,2.5-0.6c1.2,0,2,0.2,2.5,0.6    C427.6,67.2,427.9,67.9,427.9,69"/>
		<path class="st3" d="M439.1,72.9v-1.5h7.2v-2.3c0-1.2-0.3-2.2-0.9-3c-0.6-0.8-1.7-1.2-3.4-1.2c-1.6,0-2.8,0.4-3.4,1.2s-1,1.8-1,3    v3.7c0,1.3,0.3,2.3,0.9,3.1c0.7,0.8,1.8,1.2,3.4,1.2c0.7,0,1.4-0.1,2.1-0.2c0.7-0.1,1.3-0.3,1.9-0.5l-0.2-1.1    c-0.6,0.2-1.2,0.3-1.8,0.4c-0.6,0.1-1.3,0.2-1.9,0.2c-1.2,0-2-0.2-2.4-0.7C439.3,74.7,439.1,73.9,439.1,72.9L439.1,72.9z     M439.1,69.1c0-1,0.2-1.7,0.7-2.2c0.5-0.5,1.2-0.8,2.3-0.8c1.1,0,1.8,0.3,2.3,0.8c0.4,0.5,0.6,1.3,0.6,2.2v1.1h-5.9V69.1"/>
		<polyline class="st3" points="450,76.9 451.4,76.9 451.4,74.8 450,74.8 450,76.9   "/>
		<polyline class="st3" points="461.7,75.6 456.5,60.8 455.1,60.8 460.7,76.9 462.7,76.9 468.3,60.8 466.9,60.8 461.7,75.6   "/>
		<polyline class="st3" points="467.8,76.9 469.3,76.9 469.3,74.8 467.8,74.8 467.8,76.9   "/>
		<path class="st3" d="M206.3,52.5c0-1,0-1.8-0.2-2.3c-0.2-0.6-0.6-1-1.2-1.4c-0.6-0.3-1.6-0.7-3-1c-1.1-0.3-1.9-0.5-2.4-0.7    c-0.5-0.2-0.8-0.5-0.9-1c-0.1-0.4-0.2-1-0.1-1.9c0-0.7,0.1-1.2,0.2-1.6c0.2-0.4,0.5-0.7,1-0.9c0.5-0.2,1.3-0.3,2.3-0.3    c0.6,0,1.3,0.1,2,0.1c0.7,0.1,1.3,0.2,1.9,0.3l0.2-1.2c-0.6-0.2-1.2-0.3-2-0.4c-0.7-0.1-1.5-0.2-2.2-0.2c-1.3,0-2.4,0.2-3.1,0.5    c-0.7,0.3-1.2,0.7-1.5,1.3c-0.3,0.6-0.4,1.3-0.4,2.2c0,1.1,0.1,1.9,0.3,2.5c0.2,0.6,0.6,1.1,1.2,1.4c0.6,0.3,1.6,0.6,2.8,0.9    c1.2,0.3,2,0.5,2.5,0.7c0.5,0.2,0.8,0.6,0.9,1c0.1,0.4,0.2,1,0.1,1.8c0,1-0.2,1.7-0.7,2.2c-0.5,0.5-1.4,0.7-2.8,0.7    c-0.7,0-1.4-0.1-2.1-0.2c-0.7-0.1-1.4-0.3-2.2-0.5l-0.3,1.2c0.7,0.3,1.5,0.5,2.3,0.6c0.8,0.1,1.6,0.2,2.3,0.2    c1.3,0,2.4-0.2,3.1-0.5c0.7-0.3,1.2-0.8,1.5-1.4C206.2,54.1,206.3,53.3,206.3,52.5"/>
		<path class="st3" d="M215.9,55.1c-0.4,0.1-0.7,0.2-1.1,0.3c-0.4,0.1-0.7,0.1-1,0.1c-0.6,0-1-0.1-1.1-0.3c-0.2-0.2-0.2-0.6-0.2-1.1    v-8.1h3.4l0.1-1.2h-3.6v-3l-1.4,0.2v2.8h-2.3v1.2h2.3v8.2c0,0.9,0.2,1.6,0.6,2c0.4,0.4,1.1,0.6,2,0.6c0.4,0,0.9,0,1.3-0.1    c0.4-0.1,0.8-0.2,1.2-0.3L215.9,55.1"/>
		<path class="st3" d="M219,44.7V54c0,0.8,0.2,1.5,0.6,1.9c0.4,0.5,1,0.7,1.9,0.7c0.7,0,1.6-0.2,2.4-0.4c0.9-0.3,1.7-0.6,2.3-0.9    l0.1,1.1h1.2V44.7h-1.4V54c-0.8,0.4-1.6,0.7-2.4,1c-0.9,0.2-1.5,0.4-2.1,0.4c-0.4,0-0.7-0.1-0.9-0.3c-0.2-0.2-0.3-0.5-0.3-0.9    v-9.5H219"/>
		<path class="st3" d="M231.3,53.4c0,1.1,0.3,1.9,0.8,2.4c0.5,0.6,1.4,0.8,2.5,0.8c0.7,0,1.3-0.1,2-0.3c0.7-0.2,1.3-0.6,1.9-1    l0.1,1.1h1.3V39.7l-1.4,0.2v4.9c-0.7-0.1-1.3-0.2-1.9-0.3c-0.6-0.1-1.2-0.1-1.8-0.1c-1.3,0-2.2,0.3-2.8,1    c-0.6,0.6-0.8,1.5-0.8,2.6V53.4L231.3,53.4z M238.5,53.9c-0.6,0.5-1.1,0.8-1.8,1.1c-0.6,0.3-1.3,0.4-2,0.4c-0.8,0-1.3-0.2-1.6-0.5    c-0.3-0.3-0.4-0.8-0.4-1.5v-5.3c0-0.8,0.2-1.4,0.5-1.8c0.3-0.4,0.9-0.6,1.7-0.6c0.6,0,1.2,0,1.8,0.1c0.6,0.1,1.2,0.2,1.9,0.3V53.9    "/>
		<path class="st3" d="M244.8,52.5V51h7.2v-2.3c0-1.2-0.3-2.2-0.9-3c-0.6-0.8-1.7-1.2-3.4-1.2c-1.6,0-2.8,0.4-3.4,1.2    c-0.7,0.8-1,1.8-1,3v3.7c0,1.3,0.3,2.3,0.9,3.1c0.7,0.8,1.8,1.2,3.4,1.2c0.7,0,1.4-0.1,2.1-0.2c0.7-0.1,1.3-0.3,1.9-0.5l-0.2-1.1    c-0.6,0.2-1.2,0.3-1.8,0.4c-0.6,0.1-1.3,0.2-1.9,0.2c-1.2,0-2-0.2-2.4-0.7C245,54.3,244.7,53.5,244.8,52.5L244.8,52.5z     M244.8,48.7c0-1,0.2-1.7,0.7-2.2c0.5-0.5,1.2-0.8,2.3-0.8c1.1,0,1.8,0.3,2.3,0.8c0.4,0.5,0.6,1.3,0.6,2.2v1.1h-5.9V48.7"/>
		<path class="st3" d="M264.1,56.4v-9.3c0-0.8-0.2-1.5-0.6-1.9c-0.4-0.5-1-0.7-1.9-0.7c-0.7,0-1.6,0.2-2.4,0.4    c-0.9,0.3-1.7,0.6-2.3,0.9l-0.1-1.1h-1.2v11.7h1.4v-9.3c0.8-0.4,1.6-0.7,2.4-1c0.9-0.2,1.5-0.4,2.1-0.4c0.4,0,0.7,0.1,0.9,0.3    c0.2,0.2,0.3,0.5,0.3,0.9v9.5H264.1"/>
		<path class="st3" d="M273.8,55.1c-0.4,0.1-0.7,0.2-1.1,0.3c-0.4,0.1-0.7,0.1-1,0.1c-0.6,0-1-0.1-1.1-0.3c-0.2-0.2-0.2-0.6-0.2-1.1    v-8.1h3.4l0.1-1.2h-3.6v-3l-1.4,0.2v2.8h-2.3v1.2h2.3v8.2c0,0.9,0.2,1.6,0.6,2c0.4,0.4,1.1,0.6,2,0.6c0.4,0,0.9,0,1.3-0.1    c0.4-0.1,0.8-0.2,1.2-0.3L273.8,55.1"/>
		<path class="st3" d="M278.4,56.4V44.7H277v11.7H278.4L278.4,56.4z M278.4,42.5v-2.6H277v2.6H278.4"/>
		<path class="st3" d="M289.5,53.5c0-0.7,0-1.3-0.2-1.7c-0.1-0.4-0.5-0.8-1-1.1c-0.5-0.3-1.3-0.6-2.5-0.8c-0.7-0.2-1.2-0.3-1.6-0.5    c-0.3-0.2-0.5-0.4-0.6-0.6c-0.1-0.3-0.1-0.7-0.1-1.2c0-0.6,0.1-1.1,0.4-1.4c0.3-0.3,0.9-0.4,1.9-0.4c0.5,0,1,0,1.6,0.1    c0.6,0.1,1.1,0.1,1.6,0.2l0.1-1.2c-0.5-0.1-1-0.2-1.6-0.3c-0.6-0.1-1.2-0.1-1.7-0.1c-1.4,0-2.4,0.3-3,0.8    c-0.6,0.5-0.8,1.3-0.8,2.2c0,0.7,0,1.3,0.2,1.7c0.1,0.4,0.4,0.8,0.9,1.1c0.5,0.3,1.2,0.5,2.1,0.8c0.9,0.2,1.5,0.4,1.9,0.5    c0.4,0.2,0.6,0.4,0.7,0.7c0.1,0.3,0.1,0.7,0.1,1.3c0,0.7-0.1,1.2-0.5,1.5c-0.4,0.3-1.1,0.4-2.1,0.4c-0.4,0-0.9,0-1.5-0.1    c-0.6-0.1-1.1-0.2-1.6-0.4l-0.2,1.1c0.4,0.2,1,0.3,1.6,0.4c0.6,0.1,1.2,0.2,1.8,0.2c1.5,0,2.6-0.3,3.1-0.8    C289.3,55.3,289.5,54.5,289.5,53.5"/>
		<path class="st3" d="M293.6,48.5c0-1,0.2-1.7,0.7-2.2c0.5-0.4,1.3-0.6,2.3-0.6c0.3,0,0.7,0,1.1,0.1c0.4,0,0.9,0.1,1.4,0.2l0.2-1.2    c-0.4-0.1-0.9-0.2-1.3-0.2c-0.5-0.1-0.9-0.1-1.3-0.1c-1.6,0-2.8,0.4-3.5,1.1c-0.7,0.7-1,1.7-1,3v4.1c0,1.3,0.3,2.3,1,3    c0.7,0.7,1.8,1.1,3.5,1.1c0.4,0,0.9,0,1.3-0.1c0.5-0.1,0.9-0.1,1.3-0.2l-0.2-1.2c-0.5,0.1-0.9,0.1-1.4,0.2c-0.4,0-0.8,0.1-1.1,0.1    c-1.1,0-1.9-0.2-2.3-0.6c-0.5-0.4-0.7-1.1-0.7-2.2V48.5"/>
		<path class="st3" d="M311.2,56.4v-9.3c0-0.8-0.2-1.5-0.6-1.9c-0.4-0.5-1-0.7-1.9-0.7c-0.7,0-1.5,0.2-2.4,0.4    c-0.9,0.3-1.6,0.5-2.3,0.9v-6l-1.4,0.2v16.5h1.4v-9.3c0.8-0.4,1.6-0.7,2.4-1c0.9-0.2,1.5-0.4,2.1-0.4c0.4,0,0.7,0.1,0.9,0.3    c0.2,0.2,0.3,0.5,0.3,0.9v9.5H311.2"/>
		<path class="st3" d="M315.9,52.5V51h7.2v-2.3c0-1.2-0.3-2.2-0.9-3c-0.6-0.8-1.7-1.2-3.4-1.2c-1.6,0-2.8,0.4-3.4,1.2    c-0.7,0.8-1,1.8-1,3v3.7c0,1.3,0.3,2.3,0.9,3.1c0.7,0.8,1.8,1.2,3.4,1.2c0.7,0,1.4-0.1,2.2-0.2c0.7-0.1,1.3-0.3,1.9-0.5l-0.2-1.1    c-0.6,0.2-1.2,0.3-1.8,0.4c-0.6,0.1-1.3,0.2-1.9,0.2c-1.1,0-2-0.2-2.4-0.7C316.1,54.3,315.9,53.5,315.9,52.5L315.9,52.5z     M315.9,48.7c0-1,0.2-1.7,0.7-2.2c0.5-0.5,1.2-0.8,2.3-0.8c1.1,0,1.8,0.3,2.3,0.8c0.4,0.5,0.6,1.3,0.6,2.2v1.1h-5.9V48.7"/>
		<g>
			<path class="st4" d="M97.8,48.3c0.6-4.7,4.9-8.6,9.6-8.6h30.5c0.2,0-4.7,29.3-4.7,29.3c-0.6,4.7-4.9,8.6-9.6,8.6H92.9     C93.1,77.6,97.8,48.3,97.8,48.3"/>
		</g>
		<g>
			<path class="st3" d="M45.1,76.6h9.1L58.8,50c0.1-0.6,0.2-1.2,0.3-1.8c0.1-0.6,0.1-1.2,0.1-1.9c0-2.1-0.5-3.8-1.5-5.2     c-1-1.4-2.8-2.1-5.3-2.2c-2.2,0-4.5,0.4-7.2,1.2c-2.6,0.8-5.3,2-7.9,3.5c-0.3-1.4-1-2.5-2-3.4c-1-0.9-2.5-1.3-4.4-1.3     c-2.2,0-4.6,0.5-7.2,1.3s-5.2,1.9-7.6,3.3l0.2-4.4l-7.9,1.4L2,76.6h9.1l4.3-24.5c1.8-1.1,3.7-2,5.8-2.9c2.1-0.9,3.8-1.3,5.1-1.4     c0.7,0,1.2,0.1,1.5,0.4c0.3,0.3,0.4,0.7,0.4,1.2c0,0.1,0,0.2,0,0.4c0,0.2,0,0.4-0.1,0.6l-4.6,26.2h9.1l4.3-24.5     c1.8-1.1,3.7-2,5.8-2.9c2.1-0.9,3.8-1.3,5.1-1.4c0.7,0,1.2,0.1,1.5,0.4c0.3,0.3,0.4,0.7,0.4,1.2c0,0.1,0,0.2,0,0.4     c0,0.2,0,0.4-0.1,0.6L45.1,76.6"/>
			<path class="st3" d="M73.5,77.3c4.3,0,7.7-0.6,10.2-1.7c2.5-1.1,4.4-2.8,5.7-4.8c1.3-2.1,2.1-4.6,2.6-7.5l1.7-9.8     c0.1-0.4,0.1-0.9,0.2-1.3c0-0.4,0.1-0.9,0.1-1.3c0-3.3-1.1-6.1-3.4-8.3c-2.3-2.2-5.8-3.4-10.5-3.5c-6,0-10.5,1.3-13.2,3.8     c-2.8,2.5-4.5,6.1-5.2,10.6l-1.6,8.8c-0.2,1-0.2,2-0.2,2.9c0,3.3,1.1,6.2,3.3,8.4C65.3,76,68.8,77.2,73.5,77.3L73.5,77.3z      M82.9,63.3c-0.4,2.2-1.2,3.8-2.5,4.8c-1.3,1.1-3.2,1.6-5.5,1.6c-2.2,0-3.7-0.4-4.7-1.3c-0.9-0.8-1.4-2-1.4-3.5     c0-0.3,0-0.6,0-0.9c0-0.3,0.1-0.6,0.1-0.8l1.7-9.9c0.4-2.3,1.3-3.9,2.6-5.1c1.3-1.1,3.2-1.7,5.6-1.7c2.1,0,3.6,0.4,4.6,1.2     c1,0.8,1.5,2,1.5,3.5c0,0.2,0,0.5,0,0.8c0,0.3-0.1,0.6-0.1,0.8L82.9,63.3"/>
			<path class="st3" d="M146.5,64.1c0.8-0.2,1.6-0.4,2.5-0.7c0.9-0.3,2.4-0.7,4.6-1.4c5-1.5,8.6-3.3,10.9-5.4c2.3-2.1,3.4-4.8,3.4-8     c-0.1-3-1.1-5.3-3.2-7c-2.1-1.7-4.9-2.5-8.5-2.6c-5.4,0-9.4,1.3-11.9,3.7c-2.5,2.4-4.1,5.9-4.8,10.2l-2,11.2     c-0.8,3.9-0.4,7.1,1,9.5c1.4,2.4,4.5,3.6,9.3,3.7c3.1,0,6.2-0.5,9.3-1.4c3.1-0.9,5.8-2,8-3.4l-2-6.9c-2.4,1.2-4.9,2.2-7.4,3     c-2.5,0.8-4.7,1.2-6.7,1.2c-1.6,0-2.5-0.4-2.8-1.2c-0.3-0.8-0.3-1.7,0-2.8L146.5,64.1L146.5,64.1z M153.4,54.3     c-1.8,0.5-3,0.9-3.7,1.1c-0.7,0.2-1.3,0.4-1.8,0.5l0.7-3.8c0.3-1.8,1-3.2,2.1-4.3c1.1-1.1,2.7-1.7,4.7-1.7c1.2,0,2.2,0.3,2.8,0.8     c0.7,0.5,1,1.2,1,2.1c0,1.2-0.4,2.2-1.4,3.1C156.9,52.9,155.4,53.7,153.4,54.3"/>
			<path class="st3" d="M142.1,32.6l-3.7,3.2l0.9,0.2c0.7-0.6,1.5-1.1,2.3-1.2c4.5-0.9-4.2,6.9-5,7.9c-0.7,0.9-11.8,11.6-13.1,13.2     c-4.5,5.5-8.8,11.5-12.6,17.5c-8.4,13.3-18.2-34.1-3-27.9c1.7,0.7-2.4,22.8,4.5,11.8c0,0,7.1-9.7,11.2-14.3c1.8-2,5.5-5.6,5.8-6     c0,0,3.4-3.3,4.9-4.3c3-2,4.5-3.8,8-3.8c0.5,0,1,0.1,1,0.6C143.3,30.7,142.8,31.5,142.1,32.6"/>
		</g>
	</g>
</g>
</svg>